<svg xmlns="http://www.w3.org/2000/svg" viewBox="0 0 1024 682.67"><defs><linearGradient id="a" x1="512" x2="512" y2="682.67" gradientUnits="userSpaceOnUse"><stop offset="0" stop-color="#94E3A0"/><stop offset="1" stop-color="#228B22"/></linearGradient></defs><g fill="url(#a)"><path d="M1024 682.67c-139.43 0-256-65.49-256-146.38V256h256zM0 682.67c139.43 0 256-65.49 256-146.38V256H0zM512 682.67c139.43 0 256-65.49 256-146.38V256H256v280.29c0 80.89 116.57 146.38 256 146.38z"/></g><g fill="#fff"><path d="M896 256a128 128 0 1 0-256 0 128 128 0 0 0 256 0zm-256 32a96 96 0 1 1 192 0 96 96 0 0 1-192 0zM384 256a128 128 0 1 0-256 0 128 128 0 0 0 256 0zm-256 32a96 96 0 1 1 192 0 96 96 0 0 1-192 0zM640 256a128 128 0 1 0-256 0 128 128 0 0 0 256 0z"/><path d="M608 288a96 96 0 1 1-192 0 96 96 0 0 1 192 0z"/></g></svg>